<svg aria-hidden="true" style="width:0;height:0;position:absolute;overflow:hidden" xmlns="http://www.w3.org/2000/svg"><defs><symbol id="icon-search" viewBox="0 0 32 32"><path d="M.005 12c0 6.627 5.373 12 12 12 2.026 0 3.933-.507 5.608-1.395l8.342 8.344.006-.007A3.515 3.515 0 0 0 28.477 32a3.529 3.529 0 0 0 3.529-3.529c0-.985-.406-1.874-1.059-2.515l-.002.002-8.34-8.341a11.928 11.928 0 0 0 1.4-5.617c0-6.627-5.373-12-12-12s-12 5.373-12 12zm29.692 15.205c.334.322.543.768.543 1.266 0 .975-.789 1.765-1.764 1.765-.498 0-.943-.21-1.266-.543l-.008.009-8.066-8.066a12.101 12.101 0 0 0 2.498-2.494l8.063 8.063zM22.006 12c0 5.522-4.479 10-10 10s-10-4.478-10-10c0-5.521 4.478-10 10-10s10 4.479 10 10zM5.005 12a.5.5 0 0 1 1 0 6 6 0 0 0 6 6 .5.5 0 0 1 0 1 7 7 0 0 1-7-7z"/></symbol><symbol id="icon-close" viewBox="0 0 32 32"><path stroke-width="2.133" d="m8.533 8.533 14.933 14.933M8.533 23.467 23.466 8.534"/></symbol><symbol id="icon-circle-up" viewBox="0 0 32 32"><path d="M0 16c0 8.837 7.163 16 16 16s16-7.163 16-16S24.837 0 16 0 0 7.163 0 16zm29 0c0 7.18-5.82 13-13 13S3 23.18 3 16 8.82 3 16 3s13 5.82 13 13z"/><path d="m22.086 20.914 2.829-2.829-8.914-8.914-8.914 8.914 2.828 2.828 6.086-6.086z"/></symbol><symbol id="icon-moon" viewBox="0 0 24 24"><path d="M21.996 12.882a1 1 0 0 0-1.585-.9 6.11 6.11 0 0 1-3.188 1.162 5.948 5.948 0 0 1-3.95-1.158c-1.333-.985-2.139-2.415-2.367-3.935s.124-3.124 1.109-4.456a.998.998 0 0 0-.901-1.589 10.082 10.082 0 0 0-5.895 2.651 9.943 9.943 0 0 0-3.137 6.386c-.254 2.749.631 5.343 2.266 7.311s4.022 3.313 6.772 3.567 5.343-.631 7.311-2.266 3.313-4.022 3.567-6.772zm-2.429 1.792a7.988 7.988 0 0 1-2.416 3.441c-1.576 1.309-3.648 2.016-5.848 1.813s-4.108-1.278-5.417-2.854-2.016-3.648-1.813-5.848A7.932 7.932 0 0 1 6.58 6.12a8.058 8.058 0 0 1 2.731-1.672 8.008 8.008 0 0 0 2.772 9.146 7.94 7.94 0 0 0 5.272 1.545 8.083 8.083 0 0 0 2.21-.465z"/></symbol><symbol id="icon-sun" viewBox="0 0 24 24"><path d="M18 12c0-1.657-.673-3.158-1.757-4.243S13.657 6 12 6s-3.158.673-4.243 1.757S6 10.343 6 12s.673 3.158 1.757 4.243S10.343 18 12 18s3.158-.673 4.243-1.757S18 13.657 18 12zm-2 0c0 1.105-.447 2.103-1.172 2.828S13.105 16 12 16s-2.103-.447-2.828-1.172S8 13.105 8 12s.447-2.103 1.172-2.828S10.895 8 12 8s2.103.447 2.828 1.172S16 10.895 16 12zM11 1v2a1 1 0 0 0 2 0V1a1 1 0 0 0-2 0zm0 20v2a1 1 0 0 0 2 0v-2a1 1 0 0 0-2 0zM3.513 4.927l1.42 1.42a.999.999 0 1 0 1.414-1.414l-1.42-1.42a.999.999 0 1 0-1.414 1.414zm14.14 14.14 1.42 1.42a.999.999 0 1 0 1.414-1.414l-1.42-1.42a.999.999 0 1 0-1.414 1.414zM1 13h2a1 1 0 0 0 0-2H1a1 1 0 0 0 0 2zm20 0h2a1 1 0 0 0 0-2h-2a1 1 0 0 0 0 2zM4.927 20.487l1.42-1.42a.999.999 0 1 0-1.414-1.414l-1.42 1.42a.999.999 0 1 0 1.414 1.414zm14.14-14.14 1.42-1.42a.999.999 0 1 0-1.414-1.414l-1.42 1.42a.999.999 0 1 0 1.414 1.414z"/></symbol><symbol id="icon-arrow-left" viewBox="0 0 32 32"><path stroke-linejoin="round" stroke-linecap="round" stroke-width="2.667" d="M25.333 16H6.666M16 25.333 6.667 16 16 6.667"/></symbol><symbol id="icon-arrow-right" viewBox="0 0 32 32"><path stroke-linejoin="round" stroke-linecap="round" stroke-width="2.667" d="M6.667 16h18.667M16 25.333 25.333 16 16 6.667"/></symbol><symbol id="icon-film" viewBox="0 0 32 32" fill="none"><path stroke-linejoin="round" stroke-linecap="round" stroke-width="2.667" d="M26.427 2.667H5.574a2.907 2.907 0 0 0-2.907 2.907v20.853a2.907 2.907 0 0 0 2.907 2.907h20.853a2.907 2.907 0 0 0 2.907-2.907V5.574a2.907 2.907 0 0 0-2.907-2.907zM9.333 2.667v26.667M22.667 2.667v26.667M2.667 16h26.667M2.667 9.333h6.667M2.667 22.667h6.667M22.667 22.667h6.667M22.667 9.333h6.667"/></symbol></defs></svg>